<svg xmlns="http://www.w3.org/2000/svg" xmlns:xlink="http://www.w3.org/1999/xlink" viewBox="0 0 46.85 57.38"><defs><style>.cls-1{fill:none;}.cls-2{isolation:isolate;}.cls-3{fill:#3a414e;}.cls-4{mix-blend-mode:overlay;fill:url(#Безымянный_градиент_355);}.cls-4,.cls-6{opacity:0.6;}.cls-27,.cls-5{mix-blend-mode:lighten;}.cls-5{fill:url(#Безымянный_градиент_340);}.cls-6{mix-blend-mode:luminosity;}.cls-7{clip-path:url(#clip-path);}.cls-8{fill:#4d5269;}.cls-9{fill:#585e77;}.cls-10{fill:#c6c7ca;opacity:0.2;}.cls-11{clip-path:url(#clip-path-2);}.cls-12{fill:#0c78cf;}.cls-13{fill:#78ffff;}.cls-14{fill:#03b4ee;}.cls-15{fill:#03e4fc;}.cls-16{fill:#31f5fb;}.cls-17{fill:#7effff;}.cls-18{fill:#e8ffff;}.cls-19{clip-path:url(#clip-path-3);}.cls-20{fill:#26efef;}.cls-21{fill:url(#Безымянный_градиент_103);}.cls-22{fill:#8f8899;}.cls-23{fill:url(#Безымянный_градиент_170);}.cls-24{fill:url(#Безымянный_градиент_325);}.cls-25{fill:url(#Безымянный_градиент_325-2);}.cls-26{fill:url(#Безымянный_градиент_325-3);}.cls-27{fill:url(#Безымянный_градиент_340-2);}</style><linearGradient id="Безымянный_градиент_355" x1="11.95" y1="28.72" x2="38.26" y2="14.02" gradientUnits="userSpaceOnUse"><stop offset="0" stop-color="#8f8c8e"/><stop offset="0.26" stop-color="#fff"/><stop offset="0.51" stop-color="#827e80"/><stop offset="0.78" stop-color="#abaaaa"/><stop offset="1" stop-color="#827e80"/></linearGradient><linearGradient id="Безымянный_градиент_340" x1="3.53" y1="25.65" x2="37.5" y2="25.65" gradientUnits="userSpaceOnUse"><stop offset="0" stop-color="#343848" stop-opacity="0"/><stop offset="0.13" stop-color="#373b4b" stop-opacity="0.02"/><stop offset="0.27" stop-color="#404353" stop-opacity="0.1"/><stop offset="0.43" stop-color="#4f5062" stop-opacity="0.22"/><stop offset="0.59" stop-color="#646275" stop-opacity="0.38"/><stop offset="0.75" stop-color="#7e7a8f" stop-opacity="0.6"/><stop offset="0.92" stop-color="#9f97ae" stop-opacity="0.85"/><stop offset="1" stop-color="#b1a7bf"/></linearGradient><clipPath id="clip-path" transform="translate(3.96 6.08)"><path class="cls-1" d="M33.94,19.27l2.32-3h3.86l-2.25-3.87h-3L30.66,4.92a4.86,4.86,0,0,0-4.24-2.48H18.61L26.5,16.3h1.9L30.46,20,24.3,28.21l-.42.56V23.68h0a6.36,6.36,0,0,1-5.55-3.26L16,16.3h6.84L17.29,6.48,15.05,2.55h0L15,2.46A4.86,4.86,0,0,0,10.77,0H1.65L13,20.22H7.35L23,48.06a6.32,6.32,0,0,0,5.52,3.23h4.77L27.49,41.18H25l.09,0h0l1.36-.67.82-.41,1.8-.89h0l1.16-.58L32,37.71h2.67a1.08,1.08,0,0,0,1.08-1.08h0v-.1l-1.59-1-5.38-3.32h7.46l3.15-3.15-.12-.23ZM28.78,32.19V28.4h3.46Z"/></clipPath><clipPath id="clip-path-2" transform="translate(3.96 6.08)"><polygon class="cls-1" points="39.14 19.3 36.64 19.3 36.66 21.67 39.14 19.3"/></clipPath><clipPath id="clip-path-3" transform="translate(3.96 6.08)"><polygon class="cls-1" points="22.94 21.97 26.75 19.3 21.44 19.3 22.94 21.97"/></clipPath><linearGradient id="Безымянный_градиент_103" x1="9.83" y1="6.77" x2="9.83" y2="25.89" gradientUnits="userSpaceOnUse"><stop offset="0" stop-color="#8f8899"/><stop offset="0.28" stop-color="#8e8798" stop-opacity="0.98"/><stop offset="0.44" stop-color="#8a8394" stop-opacity="0.93"/><stop offset="0.57" stop-color="#837c8d" stop-opacity="0.84"/><stop offset="0.68" stop-color="#797183" stop-opacity="0.71"/><stop offset="0.79" stop-color="#6c6476" stop-opacity="0.54"/><stop offset="0.88" stop-color="#5c5467" stop-opacity="0.34"/><stop offset="0.97" stop-color="#4a4254" stop-opacity="0.1"/><stop offset="1" stop-color="#423a4d" stop-opacity="0"/></linearGradient><linearGradient id="Безымянный_градиент_170" x1="7" y1="21.22" x2="26.46" y2="53.69" gradientUnits="userSpaceOnUse"><stop offset="0" stop-color="#697089"/><stop offset="1" stop-color="#999dad"/></linearGradient><linearGradient id="Безымянный_градиент_325" x1="33.11" y1="22.9" x2="29.94" y2="36.22" gradientUnits="userSpaceOnUse"><stop offset="0" stop-color="#bfb5cc"/><stop offset="1" stop-color="#b1a7bf"/></linearGradient><linearGradient id="Безымянный_градиент_325-2" x1="32.74" y1="36.4" x2="36.45" y2="36.4" xlink:href="#Безымянный_градиент_325"/><linearGradient id="Безымянный_градиент_325-3" x1="23.1" y1="8.18" x2="39.47" y2="40.93" xlink:href="#Безымянный_градиент_325"/><linearGradient id="Безымянный_градиент_340-2" x1="3.53" y1="45.32" x2="37.5" y2="45.32" xlink:href="#Безымянный_градиент_340"/></defs><g class="cls-2"><g id="Layer_2" data-name="Layer 2"><g id="Слой_1" data-name="Слой 1"><path class="cls-3" d="M33.94,19.27l2.32-3h3.86l-2.25-3.87h-3L30.66,4.92a4.86,4.86,0,0,0-4.24-2.48H18.61L26.5,16.3h1.9L30.46,20,24.3,28.21l-.42.56V23.68h0a6.36,6.36,0,0,1-5.55-3.26L16,16.3h6.84L17.29,6.48,15.05,2.55h0L15,2.46A4.86,4.86,0,0,0,10.77,0H1.65L13,20.22H7.35L23,48.06a6.32,6.32,0,0,0,5.52,3.23h4.77L27.49,41.18H25l.09,0h0l1.36-.67.82-.41,1.8-.89h0l1.16-.58L32,37.71h2.67a1.08,1.08,0,0,0,1.08-1.08h0v-.1l-1.59-1-5.38-3.32h7.46l3.15-3.15-.12-.23ZM28.78,32.19V28.4h3.46Z" transform="translate(3.96 6.08)"/><path class="cls-4" d="M33.94,19.27l2.32-3h3.86l-2.25-3.87h-3L30.66,4.92a4.86,4.86,0,0,0-4.24-2.48H18.61L26.5,16.3h1.9L30.46,20,24.3,28.21l-.42.56V23.68h0a6.36,6.36,0,0,1-5.55-3.26L16,16.3h6.84L17.29,6.48,15.05,2.55h0L15,2.46A4.86,4.86,0,0,0,10.77,0H1.65L13,20.22H7.35L23,48.06a6.32,6.32,0,0,0,5.52,3.23h4.77L27.49,41.18H25l.09,0h0l1.36-.67.82-.41,1.8-.89h0l1.16-.58L32,37.71h2.67a1.08,1.08,0,0,0,1.08-1.08h0v-.1l-1.59-1-5.38-3.32h7.46l3.15-3.15-.12-.23ZM28.78,32.19V28.4h3.46ZM35.9,42.43v7l-4.72-8.27h3.47A1.24,1.24,0,0,1,35.9,42.43Z" transform="translate(3.96 6.08)"/><path class="cls-5" d="M33.94,19.27l2.32-3h3.86l-2.25-3.87h-3L30.66,4.92a4.86,4.86,0,0,0-4.24-2.48H18.61L26.5,16.3h1.9L30.46,20,24.3,28.21l-.42.56V23.68h0a6.36,6.36,0,0,1-5.55-3.26L16,16.3h6.84L17.29,6.48,15.05,2.55h0L15,2.46A4.86,4.86,0,0,0,10.77,0H1.65L13,20.22H7.35L23,48.06a6.32,6.32,0,0,0,5.52,3.23h4.77L27.49,41.18H25l.09,0h0l1.36-.67.82-.41,1.8-.89h0l1.16-.58L32,37.71h2.67a1.08,1.08,0,0,0,1.08-1.08h0v-.1l-1.59-1-5.38-3.32h7.46l3.15-3.15-.12-.23ZM28.78,32.19V28.4h3.46ZM35.9,42.43v7l-4.72-8.27h3.47A1.24,1.24,0,0,1,35.9,42.43Z" transform="translate(3.96 6.08)"/><g class="cls-6"><g class="cls-7"><polygon class="cls-8" points="9.85 0 1.09 0 33.33 57.36 42.09 57.36 9.85 0"/><polygon class="cls-9" points="6.7 0 2.53 0 34.77 57.36 38.95 57.36 6.7 0"/><polygon class="cls-9" points="1.09 0 0 0 32.24 57.36 33.33 57.36 1.09 0"/><polygon class="cls-10" points="4.19 0 3.42 0 35.66 57.36 36.43 57.36 4.19 0"/></g></g><g class="cls-11"><rect class="cls-12" x="40.49" y="25.39" width="6.36" height="0.58"/><rect class="cls-13" x="40.49" y="25.96" width="6.36" height="0.11"/><rect class="cls-14" x="40.49" y="26.04" width="6.36" height="0.11"/><rect class="cls-15" x="40.49" y="26.12" width="6.36" height="0.11"/><rect class="cls-16" x="40.49" y="26.61" width="6.36" height="0.11"/><rect class="cls-16" x="40.49" y="27.1" width="6.36" height="0.05"/><rect class="cls-17" x="40.49" y="26.23" width="6.36" height="0.38"/><rect class="cls-18" x="40.49" y="26.72" width="6.36" height="0.38"/><rect class="cls-18" x="40.49" y="27.16" width="6.36" height="0.9"/></g><g class="cls-19"><rect class="cls-12" x="24.88" y="25.39" width="6.36" height="0.58"/><rect class="cls-13" x="24.88" y="25.96" width="6.36" height="0.11"/><rect class="cls-14" x="24.88" y="26.04" width="6.36" height="0.11"/><rect class="cls-15" x="24.88" y="26.12" width="6.36" height="0.11"/><rect class="cls-16" x="24.88" y="26.61" width="6.36" height="0.11"/><rect class="cls-16" x="24.88" y="27.1" width="6.36" height="0.05"/><rect class="cls-17" x="24.88" y="26.23" width="6.36" height="0.38"/><rect class="cls-18" x="24.88" y="26.72" width="6.36" height="0.38"/><rect class="cls-18" x="24.88" y="27.16" width="6.36" height="0.9"/></g><path class="cls-20" d="M20.41,22.64l-5,5H13.52L9.34,20.22H8.93l6.46,11.53h1.84L28.17,51.29h.42L15.54,28l5.18-5.18M15.6,31.39,13.72,28h1.42L17,31.39Z" transform="translate(3.96 6.08)"/><polygon class="cls-20" points="43.01 20.54 37.44 20.54 38.4 19.58 42.45 19.58 42.24 19.22 38.25 19.22 37.04 20.43 30.26 8.52 29.85 8.52 36.9 20.9 43.22 20.9 43.01 20.54"/><path class="cls-3" d="M31.18,41.19l4.72,8.27v-7a1.24,1.24,0,0,0-1.25-1.24Z" transform="translate(3.96 6.08)"/><polygon class="cls-21" points="3.96 6.08 15.29 26.3 15.7 26.3 4.37 6.08 3.96 6.08"/><polygon class="cls-1" points="32.74 34.48 32.74 38.27 36.2 34.48 32.74 34.48"/><polygon class="cls-22" points="41.14 18.51 41.14 18.51 41.14 18.51 41.14 18.51"/><path class="cls-23" d="M21.8,48,6.26,20.22H5.87l15.6,27.93a6.25,6.25,0,0,0,5.22,3.12h0A6.42,6.42,0,0,1,21.8,48Z" transform="translate(3.96 6.08)"/><polygon class="cls-24" points="32.74 22.38 32.36 22.38 34.42 26.1 28.26 34.29 27.84 34.85 27.84 35.33 34.78 26.07 32.74 22.38"/><polygon class="cls-25" points="32.74 38.31 32.74 38.31 32.74 38.27 36.2 34.48 36.45 34.48 32.95 38.31 32.74 38.31"/><polygon class="cls-26" points="30.85 22.29 23.01 8.52 22.57 8.52 30.46 22.38 30.85 22.29"/><path class="cls-27" d="M31.18,41.19l4.72,8.27v-7a1.24,1.24,0,0,0-1.25-1.24Z" transform="translate(3.96 6.08)"/></g></g></g></svg>