<svg xmlns="http://www.w3.org/2000/svg" xmlns:xlink="http://www.w3.org/1999/xlink" viewBox="0 0 905.95 112.69"><defs><style>.cls-1{fill:url(#Безымянный_градиент_28);}.cls-2{fill:url(#Безымянный_градиент_28-2);}.cls-3{fill:url(#Безымянный_градиент_28-3);}.cls-4{fill:url(#Безымянный_градиент_28-4);}.cls-5{fill:url(#Безымянный_градиент_28-5);}.cls-6{fill:url(#Безымянный_градиент_28-6);}.cls-7{fill:url(#Безымянный_градиент_28-7);}.cls-8{fill:#1b242b;}</style><linearGradient id="Безымянный_градиент_28" x1="305.3" y1="113.01" x2="305.3" y2="70.77" gradientUnits="userSpaceOnUse"><stop offset="0.03" stop-color="#717a8b"/><stop offset="1" stop-color="#4a5261"/></linearGradient><linearGradient id="Безымянный_градиент_28-2" x1="364.76" y1="113.01" x2="364.76" y2="70.77" xlink:href="#Безымянный_градиент_28"/><linearGradient id="Безымянный_градиент_28-3" x1="425.08" y1="113.01" x2="425.08" y2="70.77" xlink:href="#Безымянный_градиент_28"/><linearGradient id="Безымянный_градиент_28-4" x1="461.02" y1="113.01" x2="461.02" y2="70.77" xlink:href="#Безымянный_градиент_28"/><linearGradient id="Безымянный_градиент_28-5" x1="497.37" y1="113.01" x2="497.37" y2="70.77" xlink:href="#Безымянный_градиент_28"/><linearGradient id="Безымянный_градиент_28-6" x1="546.21" y1="113.01" x2="546.21" y2="70.77" xlink:href="#Безымянный_градиент_28"/><linearGradient id="Безымянный_градиент_28-7" x1="599.03" y1="113.01" x2="599.03" y2="70.77" xlink:href="#Безымянный_градиент_28"/></defs><g id="Layer_2" data-name="Layer 2"><g id="Слой_1" data-name="Слой 1"><path class="cls-1" d="M325.07,89.7c-3-1.66-7.53-2.51-13.36-2.51h-9.79c-1.23,0-2.26,0-3.07,0s-1.83-.09-3.07-.2a18.58,18.58,0,0,1-3-.52,20.35,20.35,0,0,1-2.66-1A6.49,6.49,0,0,1,287.92,84a6.89,6.89,0,0,1-1.34-2.21,8.42,8.42,0,0,1-.53-3.1c0-5.92,6.72-8.93,20-8.93,5.77,0,10.14.85,13,2.53a11.94,11.94,0,0,1,5.54,7.66l.1.41,4-.24-.12-.57a15.05,15.05,0,0,0-6.64-10.09c-3.44-2.17-8.8-3.27-15.95-3.27-16,0-24.16,4.22-24.16,12.56a11.1,11.1,0,0,0,1.35,5.57A10.34,10.34,0,0,0,286.5,88a16.27,16.27,0,0,0,4.81,2,31.74,31.74,0,0,0,5.18.94c1.56.14,3.3.21,5.19.21.67,0,1.89,0,3.65-.06,3.84-.08,7.19-.08,9.52.06a33.27,33.27,0,0,1,4.14.56,11.27,11.27,0,0,1,3.55,1.23,6.56,6.56,0,0,1,2.19,2.22,6.63,6.63,0,0,1,.88,3.5c0,3.3-1.57,5.79-4.8,7.62s-8.34,2.81-15.07,2.81c-7.12,0-12.31-1-15.43-2.8a10.32,10.32,0,0,1-5.16-8.34l0-.45h-4.29l.05.55a13.54,13.54,0,0,0,9,12.42c3.39,1.45,8.66,2.19,15.67,2.19,8.22,0,14.37-1.24,18.28-3.69a11.92,11.92,0,0,0,6-10.61C329.78,94.33,328.19,91.43,325.07,89.7Z"/><path class="cls-2" d="M384.6,72.42c-5.32-4.15-12-6.25-19.84-6.25s-14.52,2.1-19.85,6.25a20.54,20.54,0,0,0-8.07,17c0,7.14,2.7,12.87,8,17s12,6.23,19.88,6.23,14.57-2.1,19.87-6.23,8.05-9.89,8.05-17A20.55,20.55,0,0,0,384.6,72.42ZM364.76,109c-6.86,0-12.61-1.79-17.07-5.3A17.25,17.25,0,0,1,341,89.43c0-6,2.24-10.78,6.67-14.24s10.22-5.27,17.08-5.27,12.6,1.77,17.07,5.27a17.18,17.18,0,0,1,6.68,14.24,17.27,17.27,0,0,1-6.68,14.27C377.36,107.21,371.62,109,364.76,109Z"/><path class="cls-3" d="M410.45,75.18c4.24-3.49,9.67-5.26,16.13-5.26a24.66,24.66,0,0,1,12.48,3.13,16.74,16.74,0,0,1,7.43,7.85l.22.5,3.53-1.84-.2-.44a20.83,20.83,0,0,0-9-9.3,28.66,28.66,0,0,0-14.5-3.65,32.17,32.17,0,0,0-13.25,2.67,22.93,22.93,0,0,0-9.71,8.06,21.62,21.62,0,0,0-3.7,12.53c0,7.17,2.49,12.91,7.4,17s11.15,6.21,18.61,6.21c12.27,0,20.3-4.35,23.88-12.91l.18-.45-3.53-1.61-.21.46c-3.16,7.18-9.92,10.82-20.08,10.82-6.5,0-11.87-1.77-16-5.26s-6.12-8.28-6.12-14.31S406.23,78.65,410.45,75.18Z"/><rect class="cls-4" x="458.99" y="67.54" width="4.05" height="43.78"/><polygon class="cls-5" points="477.98 90.59 515.73 90.59 515.73 86.95 477.98 86.95 477.98 71.23 519.97 71.23 519.97 67.54 473.93 67.54 473.93 111.31 520.81 111.31 520.81 107.44 477.98 107.44 477.98 90.59"/><polygon class="cls-6" points="523.31 71.41 544.16 71.41 544.16 111.31 548.15 111.31 548.15 71.41 569.12 71.41 569.12 67.54 523.31 67.54 523.31 71.41"/><polygon class="cls-7" points="620.16 67.54 599.24 91.36 578.14 67.54 572.92 67.54 597.07 94.99 597.07 111.14 601.18 111.14 601.18 94.99 625.14 67.54 620.16 67.54"/><path class="cls-8" d="M53.84,13.85l-7.52,3.92a13.63,13.63,0,0,0-6.43-7.25A22.06,22.06,0,0,0,28.68,7.71q-8.88,0-14.27,4.61T9,24.89q0,8,5.29,12.65t14.31,4.6q13.12,0,17.51-9.54L53.58,36Q47.82,49.79,28,49.79q-12.15,0-20-6.67T0,24.89A23.09,23.09,0,0,1,4,11.5,24.53,24.53,0,0,1,14.37,2.87,35,35,0,0,1,28.68,0,30.8,30.8,0,0,1,44.27,3.92,22.14,22.14,0,0,1,53.84,13.85Z"/><path class="cls-8" d="M111.07,30.45l15.68,17.83h-12L100.1,30.51H81.8V48.28H73.18V1.5h36.46q8.49,0,12.9,3.86T127,16.07a12.76,12.76,0,0,1-4.21,10.1Q118.53,29.86,111.07,30.45Zm-1.5-21.17H81.8V22.54h26.72q9.35,0,9.35-6.73A5.78,5.78,0,0,0,115.71,11,9.67,9.67,0,0,0,109.57,9.28Z"/><path class="cls-8" d="M196.14,1.5,173.4,32.86V48.22h-8.88V32.86L141.45,1.5H152l17.18,23.65L186,1.5Z"/><path class="cls-8" d="M248.6,30.51H221.29V48.28h-8.62V1.5h36.46q8.49,0,12.9,3.86t4.41,10.71q0,6.87-4.51,10.65T248.6,30.51Zm.46-21.23H221.29V22.54h27.64q8.43,0,8.43-6.73A5.78,5.78,0,0,0,255.2,11,9.65,9.65,0,0,0,249.06,9.28Z"/><path class="cls-8" d="M327.73,1.5V9.6H307.41V48.28h-8.63V9.6H278.53V1.5Z"/><path class="cls-8" d="M393.59,1.5V9H353V20.52H389V28H353V40.18H394.5v8.1H344.32V1.5Z"/><path class="cls-8" d="M419.92,1.5V39.66h37.17v8.62h-45.8V1.5Z"/><path class="cls-8" d="M481.53,1.5V39.66h37.18v8.62H472.9V1.5Z"/><path class="cls-8" d="M543.93,1.5V48.28H535.3V1.5Z"/><path class="cls-8" d="M620.43,6.47,616.32,14a41.61,41.61,0,0,0-22.81-6.27q-8.81,0-14.3,4.64t-5.49,12.54q0,8,5.32,12.65t14.41,4.6A50.06,50.06,0,0,0,604.36,41q5-1.11,6.93-2.94V30.84H597.76V23.59H620V43.64q-3.27,2.49-10.26,4.32a67.65,67.65,0,0,1-16.92,1.83q-12.16,0-20.06-6.67t-7.91-18.23a23,23,0,0,1,4-13.39,24.42,24.42,0,0,1,10.42-8.63A34.92,34.92,0,0,1,593.51,0a62,62,0,0,1,16.14,2.09C614.84,3.49,618.43,4.94,620.43,6.47Z"/><path class="cls-8" d="M689.82,1.5V9H649.25V20.52h35.93V28H649.25V40.18h41.49v8.1H640.56V1.5Z"/><path class="cls-8" d="M762.67,1.5V48.28h-9l-37-35.67V48.28h-9.08V1.5h9.21l36.78,34.89V1.5Z"/><path class="cls-8" d="M836.44,13.85l-7.52,3.92a13.63,13.63,0,0,0-6.43-7.25,22.08,22.08,0,0,0-11.21-2.81q-8.88,0-14.28,4.61t-5.39,12.57q0,8,5.3,12.65t14.31,4.6q13.13,0,17.51-9.54l7.44,3.4q-5.74,13.78-25.61,13.79-12.15,0-20.06-6.67t-7.9-18.23a23,23,0,0,1,3.95-13.39A24.53,24.53,0,0,1,797,2.87,34.94,34.94,0,0,1,811.28,0a30.74,30.74,0,0,1,15.58,3.92A22.16,22.16,0,0,1,836.44,13.85Z"/><path class="cls-8" d="M905,1.5V9H864.46V20.52H900.4V28H864.46V40.18H906v8.1H855.77V1.5Z"/></g></g></svg>